<svg width="60" height="60" viewBox="0 0 60 60" fill="none" xmlns="http://www.w3.org/2000/svg">
<mask id="mask0_622_39" style="mask-type:luminance" maskUnits="userSpaceOnUse" x="10" y="10" width="40" height="40">
<path d="M50 10H10V50H50V10Z" fill="white"/>
</mask>
<g mask="url(#mask0_622_39)">
<path d="M37.9298 16.7575C39.3594 20.0388 38.6406 23.7888 36.1094 26.32C34.4219 28.0075 32.211 28.8513 29.9922 28.8513C27.7812 28.8513 25.5625 28.0075 23.875 26.32C20.5 22.945 20.5 17.4607 23.875 14.0935C26.4063 11.5623 30.1562 10.8513 33.4375 12.2732C35.711 13.4607 37.1562 14.945 37.9298 16.7575ZM34.0704 10.8435C32.211 10.0388 30.1719 9.79664 28.1719 10.1638C26.125 10.531 24.2579 11.5154 22.7813 12.9919C18.7969 16.9763 18.7969 23.4529 22.7813 27.4294C24.5704 29.2185 26.8673 30.2029 29.2188 30.3825V35.531C28.8985 35.0544 28.5312 34.6092 28.125 34.2029C25.8438 31.9217 22.4923 31.0232 19.375 31.8592C19.1016 31.9294 18.8906 32.1404 18.8204 32.4138C17.9844 35.531 18.8829 38.8904 21.1641 41.1638C22.1719 42.1717 23.3906 42.906 24.7031 43.3513C23.7344 43.8357 22.8281 44.4607 22.0079 45.2107C21.3829 44.8982 20.6954 44.7342 19.9923 44.7342C17.5156 44.7342 15.5 46.7498 15.5 49.2263C15.5 49.656 15.8516 50.0075 16.2812 50.0075H43.711C44.1406 50.0075 44.4923 49.656 44.4923 49.2263C44.4923 46.7498 42.4766 44.7342 40 44.7342C39.2891 44.7342 38.6016 44.8982 37.9844 45.2107C37.1641 44.4607 36.2579 43.8435 35.2891 43.3513C36.6016 42.9138 37.8204 42.1794 38.8281 41.1638C41.1094 38.8825 42.0079 35.531 41.1719 32.4138C41.1016 32.1404 40.8906 31.9294 40.6173 31.8592C37.5 31.0232 34.1406 31.9217 31.8672 34.2029C31.4531 34.6169 31.0937 35.0623 30.7735 35.531V30.3825C33.125 30.2029 35.4219 29.2185 37.211 27.4294C38.6875 25.9529 39.6641 24.0857 40.0391 22.0388C40.3985 20.0388 40.1641 17.9998 39.3594 16.1404C38.3829 13.9138 36.211 11.8357 34.0704 10.8435ZM32.9844 35.3123C34.7656 33.531 37.3281 32.7732 39.7813 33.2654C40.2735 35.7185 39.5156 38.281 37.7344 40.0623C36.1875 41.6092 34.0548 42.3825 31.9141 42.2419L35.2891 38.8669C35.5938 38.5623 35.5938 38.07 35.2891 37.7654C34.9844 37.4607 34.4923 37.4607 34.1875 37.7654L30.8125 41.1404C30.6641 38.9919 31.4375 36.8513 32.9844 35.3123ZM20.2187 33.2654C22.6719 32.7732 25.2344 33.531 27.0156 35.3123C28.5625 36.8592 29.336 38.9919 29.1954 41.1325L25.8204 37.7575C25.5156 37.4529 25.0235 37.4529 24.7188 37.7575C24.4141 38.0623 24.4141 38.5544 24.7188 38.8592L28.0938 42.2342C27.9219 42.2419 27.7579 42.2498 27.586 42.2498C25.6173 42.2498 23.6954 41.4763 22.2735 40.0544C20.4923 38.281 19.7266 35.7107 20.2187 33.2654ZM17.1719 48.4373C17.5156 47.2029 18.6485 46.2888 19.9923 46.2888C20.5938 46.2888 21.1797 46.4763 21.6719 46.82C21.9844 47.0388 22.4063 46.9998 22.6798 46.7263C24.625 44.7498 27.2266 43.6638 30 43.6638C32.7735 43.6638 35.3673 44.7498 37.3204 46.7263C37.586 46.9998 38.0156 47.0388 38.3281 46.82C38.8204 46.4763 39.4063 46.2888 40.0079 46.2888C41.3516 46.2888 42.4923 47.2029 42.8281 48.4373H17.1719Z" fill="white"/>
<path d="M31.3672 23.0938C30.9844 23.3594 30.5625 23.4921 30.1094 23.4921C29.289 23.4921 28.5156 23.0079 28.0234 22.1954H29.5469C29.9609 22.1954 30.3046 21.8594 30.3046 21.4375C30.3046 21.0156 29.9688 20.6796 29.5469 20.6796H27.5235C27.5079 20.5625 27.5 20.4375 27.5 20.3125C27.5 20.1875 27.5079 20.0625 27.5235 19.9454H30.1094C30.5234 19.9454 30.8672 19.6094 30.8672 19.1875C30.8672 18.7656 30.5312 18.4298 30.1094 18.4298H28.0234C28.5156 17.625 29.289 17.1329 30.1094 17.1329C30.5625 17.1329 30.9844 17.2656 31.3672 17.5312C31.5391 17.6485 31.7344 17.6875 31.9375 17.6485C32.1327 17.6094 32.3047 17.5 32.4219 17.336C32.539 17.1719 32.5781 16.9688 32.539 16.7656C32.5 16.5703 32.3906 16.3985 32.2187 16.2812C31.5859 15.8516 30.8594 15.625 30.1094 15.625C28.4609 15.625 27 16.7188 26.336 18.4298H25.6171C25.2031 18.4298 24.8594 18.7656 24.8594 19.1875C24.8594 19.6094 25.1952 19.9454 25.6171 19.9454H26.0077C25.9921 20.0625 25.9844 20.1875 25.9844 20.3125C25.9844 20.4375 25.9921 20.5625 26.0077 20.6796H25.6171C25.2031 20.6796 24.8594 21.0156 24.8594 21.4375C24.8594 21.8594 25.1952 22.1954 25.6171 22.1954H26.336C27 23.9062 28.4609 25 30.1094 25C30.8594 25 31.5859 24.7735 32.2187 24.3438C32.5625 24.1094 32.6484 23.6329 32.414 23.2891C32.1875 22.9531 31.7187 22.8594 31.3672 23.0938Z" fill="white"/>
</g>
</svg>
