<svg width="60" height="60" viewBox="0 0 60 60" fill="none" xmlns="http://www.w3.org/2000/svg">
<path d="M11.1129 31.9456L10 30.7679C11.275 29.5576 12.6148 28.4447 13.9979 27.4399C14.4949 27.0725 14.9919 26.7267 15.4997 26.3919L11.2318 19.8224L12.5933 18.9364L16.872 25.5382C18.6331 24.501 20.4051 23.6581 22.188 23.0206L19.6812 15.6193L21.2155 15.1006L23.7222 22.5129C25.57 21.9834 27.396 21.6809 29.2004 21.6052V13.75H30.8211V21.5944C32.6256 21.6592 34.4625 21.9726 36.2992 22.502L38.806 15.0899L40.3404 15.6085L37.8336 23.0099C39.6164 23.6365 41.3885 24.4794 43.1496 25.5274L47.4284 18.9364L48.7682 19.8224L44.5111 26.3919C45.0081 26.7267 45.516 27.0725 46.013 27.4399C47.3852 28.4447 48.725 29.5685 50 30.7679L48.8871 31.9456C47.6661 30.7895 46.3804 29.709 45.0621 28.7472C40.1026 25.1169 34.8946 23.2044 30 23.2044C25.1054 23.2044 19.8974 25.1276 14.9379 28.7472C13.6196 29.709 12.3339 30.7895 11.1129 31.9456Z" fill="white"/>
<path fillRule="evenodd" clipRule="evenodd" d="M30.0112 40.4919C32.2479 40.4919 34.0631 38.6767 34.0631 36.4401C34.0631 34.2034 32.2479 32.3882 30.0112 32.3882C27.7746 32.3882 25.9594 34.2034 25.9594 36.4401C25.9594 38.6767 27.7746 40.4919 30.0112 40.4919ZM30.0112 34.0089C31.3511 34.0089 32.4423 35.1003 32.4423 36.4401C32.4423 37.7799 31.3511 38.8712 30.0112 38.8712C28.6715 38.8712 27.5801 37.7799 27.5801 36.4401C27.5801 35.1003 28.6715 34.0089 30.0112 34.0089Z" fill="white"/>
<path fillRule="evenodd" clipRule="evenodd" d="M43.4739 30.9193C38.9899 27.6345 34.3329 25.9058 30.0109 25.9058C25.6889 25.9058 21.032 27.6454 16.5479 30.9193C13.3077 33.2948 11.2629 35.6403 11.0435 35.8919L11.0266 35.9111L10.5836 36.4298L11.0266 36.9484L11.0434 36.9676C11.2628 37.2193 13.3075 39.5648 16.5479 41.9403C21.032 45.225 25.6889 46.9538 30.0109 46.9538C34.3329 46.9538 38.9899 45.2143 43.4739 41.9403C46.7142 39.5649 48.7589 37.2195 48.9784 36.9676L48.9953 36.9484L49.4383 36.4298L48.9953 35.9111L48.9768 35.8899C48.7494 35.6283 46.7164 33.2888 43.4739 30.9193ZM38.925 36.4405C38.925 41.3569 34.9272 45.3546 30.0109 45.3546C25.0947 45.3546 21.0968 41.3569 21.0968 36.4405C21.0968 31.5243 25.0947 27.5265 30.0109 27.5265C34.9272 27.5265 38.925 31.5243 38.925 36.4405ZM12.7338 36.4405C13.5118 35.6086 15.2189 33.9014 17.5312 32.205C18.7954 31.2866 20.3622 30.2818 22.1342 29.4498C20.4809 31.3083 19.4762 33.7609 19.4762 36.4405C19.4762 39.1203 20.4809 41.5729 22.1342 43.4314C20.3622 42.5994 18.7954 41.5945 17.5312 40.6761C15.2189 38.9798 13.5118 37.2725 12.7338 36.4405ZM42.4907 40.6761C41.2265 41.5945 39.6598 42.5994 37.8878 43.4314C39.5409 41.5729 40.5458 39.1203 40.5458 36.4405C40.5458 33.7609 39.5409 31.3083 37.8878 29.4498C39.6598 30.2818 41.2265 31.2866 42.4907 32.205C44.8029 33.8906 46.5102 35.5978 47.288 36.4405C46.5102 37.2725 44.8029 38.9798 42.4907 40.6761Z" fill="white"/>
</svg>
