<svg width="60" height="60" viewBox="0 0 60 60" fill="none" xmlns="http://www.w3.org/2000/svg">
<mask id="mask0_622_12" style="mask-type:luminance" maskUnits="userSpaceOnUse" x="10" y="10" width="40" height="40">
<path d="M50 10H10V50H50V10Z" fill="white"/>
</mask>
<g mask="url(#mask0_622_12)">
<path fillRule="evenodd" clipRule="evenodd" d="M20.5634 50C19.3463 50 18.1508 49.6087 17.1837 48.8589C15.9555 47.9025 15.2383 46.4897 15.2383 44.99C15.2383 43.4904 15.9447 42.0666 17.1837 41.1211C17.3792 40.969 17.5857 40.8277 17.803 40.7082C17.5857 40.5886 17.3792 40.4474 17.1837 40.2952C15.9555 39.328 15.2492 37.9152 15.2492 36.4155C15.2492 34.9157 15.9555 33.4921 17.1944 32.5466C17.39 32.3945 17.5965 32.2532 17.8139 32.1337C17.5965 32.0141 17.39 31.8729 17.1944 31.7207C15.9664 30.7644 15.2492 29.3516 15.2492 27.8519C15.2492 26.3521 15.9555 24.9285 17.1944 23.983C17.39 23.8309 17.5965 23.6896 17.8139 23.57C17.5965 23.4505 17.39 23.3092 17.1944 23.1571C15.9664 22.2007 15.2492 20.788 15.2492 19.2882C15.2492 17.7885 15.9555 16.3649 17.1944 15.4194C17.39 15.2672 17.5965 15.1259 17.8139 15.0064C17.5965 14.8869 17.39 14.7456 17.1944 14.5934C15.9664 13.6371 15.2492 12.2243 15.2492 10.7246H16.8793C16.8793 11.7244 17.3575 12.6699 18.1834 13.311C19.118 14.0391 20.3787 14.2891 21.5633 13.9849L36.191 10.1812C37.8538 9.74648 39.636 10.1051 40.9728 11.1375C42.2008 12.0939 42.918 13.5066 42.918 15.0064C42.918 16.517 42.2117 17.9297 40.9728 18.8752C40.7772 19.0274 40.5707 19.1686 40.3533 19.2882C40.5707 19.4077 40.7772 19.549 40.9728 19.7011C42.2008 20.6575 42.918 22.0704 42.918 23.57C42.918 25.0806 42.2117 26.4934 40.9728 27.4389C40.7772 27.591 40.5707 27.7324 40.3533 27.8519C40.5707 27.9714 40.7772 28.1127 40.9728 28.2649C42.2008 29.2211 42.918 30.634 42.918 32.1337C42.918 33.6334 42.2117 35.0571 40.9728 36.0025C40.7772 36.1547 40.5707 36.296 40.3533 36.4155C40.5707 36.5351 40.7772 36.6764 40.9728 36.8285C42.2008 37.7849 42.918 39.1976 42.918 40.6974C42.918 42.208 42.2117 43.6207 40.9728 44.5662C40.7772 44.7184 40.5707 44.8596 40.3533 44.9791C40.5707 45.0987 40.7772 45.24 40.9728 45.3921C42.2008 46.3485 42.918 47.7612 42.918 49.261H41.2879C41.2879 48.2611 40.8097 47.3266 39.9838 46.6745C39.0492 45.9464 37.7885 45.6964 36.6039 46.0007L21.9762 49.8044C21.5089 49.9347 21.0415 50 20.5634 50ZM20.5634 41.5994C19.7049 41.5994 18.8572 41.871 18.1834 42.3927C17.3575 43.0339 16.8793 43.9794 16.8793 44.9791C16.8793 45.979 17.3575 46.9245 18.1834 47.5656C19.118 48.2937 20.3787 48.5437 21.5633 48.2395L34.0827 44.99L21.5524 41.7406C21.2372 41.6429 20.9003 41.5994 20.5634 41.5994ZM24.0737 40.6974L36.6039 43.9467C37.7777 44.251 39.0383 44.0011 39.9838 43.273C40.8097 42.6317 41.2879 41.6862 41.2879 40.6865C41.2879 39.6866 40.8097 38.7411 39.9838 38.1C39.0492 37.3719 37.7885 37.1219 36.6039 37.4262L24.0737 40.6974ZM20.5634 33.0357C19.7049 33.0357 18.8572 33.3074 18.1834 33.829C17.3575 34.4702 16.8793 35.4157 16.8793 36.4155C16.8793 37.4154 17.3575 38.3609 18.1834 39.002C19.118 39.7301 20.3787 39.9801 21.5633 39.6757L34.0827 36.4264L21.5524 33.177C21.2372 33.0682 20.9003 33.0357 20.5634 33.0357ZM24.0737 32.1229L36.6039 35.3722C37.7777 35.6765 39.0383 35.4266 39.9838 34.6985C40.8097 34.0572 41.2879 33.1117 41.2879 32.112C41.2879 31.1121 40.8097 30.1775 39.9838 29.5255C39.0492 28.7974 37.7885 28.5474 36.6039 28.8517L24.0737 32.1229ZM20.5634 24.4611C19.7049 24.4611 18.8572 24.7329 18.1834 25.2545C17.3575 25.8957 16.8793 26.8411 16.8793 27.841C16.8793 28.8409 17.3575 29.7862 18.1834 30.4275C19.118 31.1556 20.3787 31.4056 21.5633 31.1012L34.0827 27.8519L21.5524 24.6025C21.2372 24.4937 20.9003 24.4611 20.5634 24.4611ZM24.0737 23.5482L36.6039 26.7977C37.7777 27.102 39.0383 26.852 39.9838 26.1239C40.8097 25.4827 41.2879 24.5372 41.2879 23.5375C41.2879 22.5376 40.8097 21.5921 39.9838 20.951C39.0492 20.2229 37.7885 19.9729 36.6039 20.2771L24.0737 23.5482ZM20.5634 15.8866C19.7049 15.8866 18.8572 16.1584 18.1834 16.68C17.3575 17.3211 16.8793 18.2666 16.8793 19.2665C16.8793 20.2662 17.3575 21.2118 18.1834 21.853C19.118 22.5811 20.3787 22.831 21.5633 22.5267L34.0827 19.2774L21.5633 16.0062C21.2372 15.9301 20.9003 15.8866 20.5634 15.8866ZM24.0737 14.9737L36.6039 18.2232C37.7777 18.5275 39.0383 18.2775 39.9838 17.5494C40.8097 16.9082 41.2879 15.9627 41.2879 14.9629C41.2879 13.9631 40.8097 13.0285 39.9838 12.3764C39.0492 11.6483 37.7885 11.3983 36.6039 11.7026L24.0737 14.9737Z" fill="white"/>
<path d="M48.5793 10.6924H46.9492V49.2723H48.5793V10.6924Z" fill="white"/>
<path d="M10 10.6924H11.6301V49.2723H10V10.6924Z" fill="white"/>
</g>
</svg>
