<svg width="60" height="60" viewBox="0 0 60 60" fill="none" xmlns="http://www.w3.org/2000/svg">
<path d="M49.99 10.8209L49.9441 10.057L49.1761 10.0114C48.9355 10 43.5485 9.73778 39.789 12.7134C38.0812 11.7102 36.2474 10.9805 34.3217 10.5245C32.8432 10.171 31.3074 10 29.7715 10C18.8714 10 10 18.8244 10 29.6666C10 40.509 18.8714 49.3334 29.7715 49.3334C40.6716 49.3334 49.543 40.509 49.543 29.6666C49.543 26.3832 48.7178 23.1681 47.1589 20.3065C50.265 16.5555 50.0014 11.0603 49.99 10.8209ZM40.3621 28.8002C40.3277 27.1926 40.1903 25.6308 39.9495 24.103C41.8062 23.7724 44.0527 23.0655 45.8866 21.5606C47.0329 23.8066 47.6861 26.2691 47.8008 28.8002H40.3621ZM28.9119 11.8014V28.8116H20.9001C21.0033 24.2512 21.9775 19.9986 23.6509 16.7607C25.118 13.9219 26.9634 12.189 28.9119 11.8014ZM28.9119 30.5104V47.532C26.9634 47.133 25.118 45.4114 23.6509 42.5725C21.9775 39.3346 21.0148 35.0821 20.9001 30.5104H28.9119ZM30.6311 47.532V30.5104H38.6429C38.5398 35.0821 37.5655 39.3346 35.892 42.5725C34.425 45.4114 32.5796 47.1444 30.6311 47.532ZM30.6311 28.8002V11.8014C31.6283 12.0066 32.6025 12.5539 33.5309 13.4545C34.6084 14.492 35.5826 15.9855 36.3849 17.7755C35.4106 20.6827 35.5368 23.3961 35.5483 23.5671L35.594 24.331L36.362 24.3766C36.3964 24.3766 36.5798 24.388 36.8662 24.388C37.1986 24.388 37.6686 24.3766 38.2417 24.331C38.4709 25.7789 38.6085 27.2839 38.6429 28.8116H30.6311V28.8002ZM34.9751 12.4626C36.2015 12.8275 37.3821 13.3176 38.5054 13.9447C38.0239 14.5034 37.6227 15.0963 37.2904 15.7119C36.5912 14.435 35.8118 13.3405 34.9751 12.4626ZM48.2708 11.7216C48.2134 13.3975 47.8122 17.2966 45.3365 19.7592C43.3765 21.7087 40.5111 22.3586 38.5626 22.5752L43.9955 17.1713L42.7805 15.9627L37.3706 21.344C37.4853 20.3179 37.7259 19.041 38.2188 17.7755L38.2531 17.764C38.2531 17.7526 38.2417 17.7413 38.2417 17.7299C38.6772 16.624 39.3076 15.5295 40.2016 14.6287C42.6659 12.1776 46.5859 11.7786 48.2708 11.7216ZM24.5564 12.474C23.6624 13.3975 22.8371 14.5717 22.115 15.9741C20.3155 19.44 19.284 23.9661 19.1809 28.8002H11.7422C12.109 21.0817 17.4042 14.6287 24.5564 12.474ZM11.7422 30.5104H19.1809C19.284 35.3558 20.327 39.8819 22.115 43.3593C22.8371 44.7615 23.6624 45.9359 24.5564 46.8594C17.4042 44.7045 12.0975 38.2402 11.7422 30.5104ZM34.9866 46.8594C35.8806 45.9359 36.7059 44.7615 37.4279 43.3593C39.2274 39.8934 40.259 35.3558 40.3621 30.5104H47.8008C47.4455 38.2402 42.1386 44.7045 34.9866 46.8594Z" fill="white"/>
</svg>
