<svg width="60" height="60" viewBox="0 0 60 60" fill="none" xmlns="http://www.w3.org/2000/svg">
<path fill-rule="evenodd" clip-rule="evenodd" d="M16.0172 39.6387L30.1421 50L44.267 39.6387C46.4736 38.0257 47.7843 35.427 47.7843 32.6939V14.7046L30.355 10.056L30.1421 10L12.5 14.7046V32.6939C12.5 35.427 13.8105 38.0257 16.0172 39.6387ZM14.1803 32.7051V16.0039L30.1421 11.7474L46.104 16.0039V32.7051C46.104 34.9006 45.0399 36.9952 43.2701 38.2946L30.1421 47.9277L17.0141 38.2946C15.2444 36.9952 14.1803 34.9006 14.1803 32.7051ZM27.3869 32.3241C27.8238 32.7609 28.4062 32.9961 29.0224 32.9961C29.6384 32.9961 30.2209 32.7609 30.6577 32.3241L39.6972 23.2846L38.5099 22.0972L29.4704 31.1367C29.3471 31.26 29.1904 31.3271 29.0224 31.3271C28.8542 31.3271 28.6975 31.26 28.5742 31.1367L22.8951 25.4576L21.7079 26.645L27.3869 32.3241Z" fill="white"/>
</svg>
