<svg width="60" height="60" viewBox="0 0 60 60" fill="none" xmlns="http://www.w3.org/2000/svg">
<path d="M47.2049 39.2986L43.5196 32.6279L43.4994 32.5876C43.4184 32.4465 43.2969 32.3256 43.1551 32.245C42.9121 32.1039 42.6286 32.0435 42.3451 32.1241C42.0616 32.1845 41.839 32.3659 41.677 32.6078L40.1583 35.0866L31.7145 29.9676L39.895 24.7681L41.6163 27.4889C41.7175 27.6299 41.839 27.7509 41.9808 27.8516C42.1426 27.9524 42.3451 27.9926 42.5274 27.9926C42.8919 27.9926 43.2564 27.8113 43.4386 27.4686L47.0226 20.6971C47.1036 20.536 47.1644 20.3546 47.1441 20.153C47.1441 19.8709 47.0226 19.6089 46.8 19.4074C46.5975 19.2059 46.314 19.1051 46.0305 19.1253L42.2236 19.2461L38.3966 19.3873H38.3561C38.1941 19.4074 38.0321 19.4476 37.8904 19.5283C37.6474 19.6694 37.4651 19.9113 37.4044 20.1934C37.3436 20.4755 37.3841 20.7576 37.5461 21.0196L38.9434 23.2164L30.9045 28.3353V18.702H33.8204C34.0026 18.702 34.1849 18.6618 34.3469 18.5609C34.5898 18.4199 34.772 18.1981 34.853 17.916C34.934 17.6339 34.8935 17.3518 34.7518 17.1099L30.9248 10.5198L30.9045 10.4996C30.8235 10.3586 30.702 10.2376 30.5603 10.157C30.3173 10.016 30.0338 9.95549 29.7503 10.0361C29.4668 10.0966 29.2441 10.278 29.0821 10.5198L25.255 17.1099C25.1538 17.2711 25.1133 17.4726 25.1133 17.6743C25.1335 18.2586 25.5993 18.7221 26.1865 18.7221H29.0821V28.3958L20.78 23.3978L22.2784 20.939C22.3796 20.7778 22.4404 20.5964 22.4404 20.3949C22.4404 19.8104 21.9746 19.3268 21.3875 19.3066L13.7536 19.1253H13.7334C13.5714 19.1253 13.3891 19.1655 13.2474 19.2461C12.7209 19.5081 12.5184 20.153 12.7816 20.677L16.4873 27.3679L16.5075 27.388C16.6088 27.5493 16.7303 27.6703 16.8921 27.771C17.0541 27.8718 17.2364 27.912 17.4389 27.912C17.5199 27.912 17.6211 27.8919 17.7021 27.8717C17.9856 27.7911 18.2084 27.6299 18.3501 27.388L19.8688 24.9093L28.2924 29.9879L19.8283 35.3889L18.3906 33.0914C18.2894 32.9303 18.1476 32.7891 17.9654 32.6884C17.7224 32.5472 17.4186 32.5271 17.1554 32.6078C16.8921 32.6884 16.6695 32.8697 16.5278 33.1318L12.9639 39.8831C12.8626 40.0645 12.8221 40.2459 12.8424 40.4474C12.8829 41.0116 13.3486 41.4349 13.9156 41.4349C13.9359 41.4349 13.9561 41.4349 13.9561 41.4349L17.7629 41.314L21.5698 41.1729C21.7723 41.1729 21.9746 41.1124 22.1366 40.9915C22.3796 40.8303 22.5416 40.5884 22.6024 40.3062C22.6631 40.0442 22.6024 39.7621 22.4606 39.5202L20.8205 36.9205L29.1024 31.6404V41.2736H26.1865C25.984 41.2736 25.8018 41.314 25.6398 41.4148C25.1335 41.717 24.9513 42.3619 25.255 42.8657L29.0619 49.4559C29.1631 49.6372 29.3049 49.7581 29.4668 49.8589C29.6288 49.9395 29.811 50 29.9933 50C30.0945 50 30.1958 49.9799 30.297 49.9597C30.5603 49.8791 30.783 49.6978 30.9248 49.4559L34.7518 42.8657C34.853 42.7045 34.8935 42.5231 34.8935 42.3418C34.8935 42.0596 34.7923 41.7976 34.5898 41.5961C34.3874 41.3946 34.1241 41.2736 33.8204 41.2736H30.9045V31.6001L39.2066 36.6182L37.6879 39.0971L37.6676 39.1173C37.5866 39.2584 37.5259 39.4397 37.5259 39.6211C37.5056 40.2055 37.9714 40.7094 38.5789 40.7295L46.2128 40.8908C46.233 40.8908 46.233 40.8908 46.2533 40.8908C46.4558 40.8908 46.638 40.8302 46.8 40.7295C47.0429 40.5884 47.2251 40.3466 47.2859 40.0645C47.3669 39.8025 47.3466 39.5203 47.2049 39.2986ZM44.532 21.1608L42.4666 25.0906L40.0975 21.3421L44.532 21.1608ZM29.9933 12.8979L32.2206 16.727H27.7659L29.9933 12.8979ZM17.4591 25.0301L15.3128 21.1405L19.7675 21.2414L17.4591 25.0301ZM15.4748 39.3994L17.5401 35.4896L19.9093 39.2381L15.4748 39.3994ZM29.9933 47.0979L27.7659 43.2689H32.2206L29.9933 47.0979ZM40.2393 38.7545L42.5476 34.9656L44.694 38.8552L40.2393 38.7545Z" fill="white"/>
</svg>
