<svg width="60" height="60" viewBox="0 0 60 60" fill="none" xmlns="http://www.w3.org/2000/svg">
<mask id="mask0_622_28" style="mask-type:luminance" maskUnits="userSpaceOnUse" x="10" y="10" width="40" height="40">
<path d="M50 10H10V50H50V10Z" fill="white"/>
</mask>
<g mask="url(#mask0_622_28)">
<path fillRule="evenodd" clipRule="evenodd" d="M15.3436 40.4798C15.7156 40.3341 16.1129 40.2638 16.5122 40.2733C18.2671 40.3264 19.621 41.7243 19.591 43.4604C19.5799 44.2802 19.2465 45.0626 18.6631 45.6383C18.0797 46.2142 17.2931 46.5371 16.4736 46.5373H16.4089C15.5695 46.5149 14.773 46.1616 14.193 45.5542C13.9131 45.2664 13.6932 44.9258 13.546 44.5523C13.3989 44.1787 13.3275 43.7797 13.3359 43.3782C13.361 42.5222 13.7241 41.7109 14.3457 41.1221C14.6324 40.8438 14.9716 40.6254 15.3436 40.4798ZM15.4061 44.4577C15.6854 44.7371 16.0641 44.8939 16.4591 44.8939H16.4562C16.8526 44.8979 17.2345 44.7447 17.5182 44.4677C17.6574 44.3282 17.7674 44.1622 17.8415 43.9796C17.9157 43.7971 17.9526 43.6014 17.9501 43.4043C17.9477 43.0128 17.7922 42.6378 17.5171 42.3596C17.2419 42.0812 16.8687 41.9216 16.4775 41.9147H16.4591C16.0641 41.9147 15.6854 42.0717 15.4061 42.3511C15.1269 42.6303 14.97 43.0093 14.97 43.4043C14.97 43.7994 15.1269 44.1783 15.4061 44.4577Z" fill="white"/>
<path fillRule="evenodd" clipRule="evenodd" d="M45.9734 36.783C48.2743 36.809 49.9605 38.4842 49.9827 40.7724C49.9991 42.405 49.9991 44.1227 49.9827 46.0241C49.9711 47.3562 49.4319 48.4379 48.3795 49.2372C47.7775 49.6936 46.7841 50 45.9056 50H13.5494C13.4651 49.9986 13.3809 49.9927 13.2971 49.9826C12.3523 49.852 11.4891 49.3765 10.8736 48.6476C10.3276 48.0241 10 47.1976 10 46.4514V13.9854C10.0066 13.6472 10.0529 13.3111 10.1382 12.984C10.6552 11.1347 12.1076 10.0231 14.022 10.0105C15.6831 9.99601 17.3751 9.99699 19.1957 10.0105C19.564 10.0086 19.9309 10.0554 20.2868 10.1497C22.1123 10.663 23.2081 12.1091 23.2196 14.0164V19.4354C23.7019 18.6099 24.4962 17.2479 25.1726 16.0744C25.6751 15.2015 26.1641 14.3575 26.5255 13.737C27.6968 11.7244 29.814 11.0593 31.796 12.082C33.1121 12.7616 34.4041 13.5349 35.6536 14.2831C36.0402 14.5151 36.4268 14.7459 36.8132 14.9752C37.4681 15.3715 37.9746 15.972 38.2551 16.6842C38.7672 17.9032 38.6667 19.1415 37.9575 20.3672C36.8894 22.2135 35.8227 24.0609 34.7579 25.9091L34.1587 26.9462L36.2094 25.94C37.7535 25.1772 39.35 24.3962 40.9241 23.6306C43.0154 22.6127 45.1451 23.2421 46.2226 25.1956C47.1406 26.8592 47.993 28.6002 48.7564 30.3701C49.5914 32.3035 48.9275 34.2416 47.0662 35.3049C46.3096 35.738 45.5153 36.1189 44.7422 36.4871L44.1624 36.7646C44.5962 36.7771 45.0254 36.783 45.4458 36.783H45.9734ZM11.638 45.8927C11.6418 47.4132 12.584 48.3576 14.0964 48.3576C17.8651 48.3576 44.7296 48.3576 45.8419 48.3586C47.4074 48.3567 48.3458 47.4229 48.3458 45.8627V40.9647C48.3448 39.3494 47.4209 38.4224 45.811 38.4224H14.1031C13.9998 38.4224 13.9031 38.4234 13.8065 38.4291C13.2169 38.4524 12.6599 38.7055 12.2545 39.1344C11.8492 39.5632 11.6279 40.1339 11.638 40.724V45.8927ZM40.1056 36.7791C40.2847 36.7779 40.4615 36.7376 40.6236 36.6611C41.9365 36.0234 43.2304 35.3899 44.5956 34.7215L45.983 34.0425C47.3822 33.3542 47.8075 32.1024 47.1214 30.695C46.3985 29.2034 45.6805 27.7419 44.949 26.2686C44.833 26.0201 44.6856 25.7875 44.5103 25.5765C43.7767 24.7316 42.7458 24.5712 41.6113 25.1261C38.2938 26.75 21.9808 34.7704 17.9444 36.7704H22.6399C28.5684 36.7791 37.5284 36.7849 40.1056 36.7791ZM31.6038 28.0686C33.52 24.7712 35.0951 22.0444 36.5601 19.4915C37.2887 18.2202 36.9448 16.9211 35.6818 16.1767C34.3318 15.3841 32.801 14.49 31.2751 13.6441C30.9286 13.4442 30.5443 13.3187 30.1465 13.2759C30.0779 13.2681 30.0103 13.2681 29.9445 13.2681C29.0913 13.2681 28.4293 13.7012 27.92 14.5789C25.6153 18.5789 17.4186 32.7704 15.5083 36.0754C18.5966 34.5645 30.8306 28.578 31.3138 28.3237C31.4314 28.266 31.5315 28.1779 31.6038 28.0686ZM21.5681 21.098C21.5749 18.7414 21.5818 16.2995 21.5711 13.8965C21.5624 12.6407 20.6183 11.6741 19.3745 11.649C18.529 11.6326 17.6564 11.6239 16.7229 11.6239C15.8357 11.6239 14.8936 11.6316 13.8664 11.6471C12.815 11.6625 11.9627 12.3382 11.7452 13.3271C11.6702 13.7317 11.6378 14.1432 11.6486 14.5547C11.6428 14.694 11.6428 14.8321 11.6428 14.9694L11.6443 17.0425C11.648 22.1084 11.6573 34.8851 11.6573 37.4837L11.6766 37.4712L11.6852 37.4659C11.9666 37.2916 12.2568 37.1119 12.583 37.043C13.1232 36.9289 13.4644 36.348 13.5919 36.1285C13.7677 35.8279 19.9583 25.072 21.4986 22.3914C21.5469 22.321 21.5714 22.237 21.5681 22.1516V21.098Z" fill="white"/>
</g>
</svg>
