<svg width="60" height="60" viewBox="0 0 60 60" fill="none" xmlns="http://www.w3.org/2000/svg">
<path d="M15.8639 44.1359C12.1143 40.3864 10.0054 35.3025 10 29.9998C10.0017 26.9403 10.7054 23.922 12.0568 21.1772C13.4083 18.4323 15.3714 16.034 17.7951 14.167C20.2189 12.2999 23.0386 11.0139 26.0375 10.4077C29.0364 9.80153 32.1344 9.89146 35.093 10.6706C38.0516 11.4497 40.7921 12.8972 43.1035 14.9017C45.4149 16.9062 47.2355 19.4143 48.4255 22.2329C49.6154 25.0515 50.1427 28.1055 49.967 31.16C49.7912 34.2145 48.9171 37.1879 47.4118 39.8515C46.0284 42.2752 44.1579 44.386 41.9181 46.0509H49.1509V47.7492H38.7366V37.3247H40.4245V45.0484C44.025 42.5529 46.6121 38.8502 47.7171 34.6112C48.822 30.3722 48.3716 25.8775 46.4476 21.942C44.5235 18.0065 41.253 14.8907 37.2291 13.1593C33.2051 11.4278 28.694 11.1954 24.5134 12.5042C20.3329 13.8129 16.7595 16.5762 14.4411 20.293C12.1228 24.0099 11.2129 28.4345 11.8764 32.7647C12.5399 37.0947 14.7328 41.0438 18.0578 43.896C21.3826 46.7483 25.6194 48.3149 30 48.3118V49.9998C24.6974 49.9944 19.6134 47.8855 15.8639 44.1359Z" fill="white"/>
<path d="M29.1304 29.6524V18.7368H30.8286V30.3276L23.5345 37.6217L22.3376 36.4452L29.1304 29.6524Z" fill="white"/>
</svg>
