
<svg width="150pt" height="150pt" version="1.1" viewBox="0 0 1200 1200" xmlns="http://www.w3.org/2000/svg">
 <g>
  <path d="m809.33 1077.3h-570.66c-32 0-58.668-26.668-58.668-58.668v-733.33c0-32 26.668-58.668 58.668-58.668h56c10.668 0 20 9.332 20 20 0 10.668-9.3359 20.004-20 20.004h-56c-10.668 0-18.668 8-18.668 18.668v733.33c0 10.668 8 18.668 18.668 18.668h570.67c10.668 0 18.668-8 18.668-18.668v-253.33c0-10.668 9.332-20 20-20 10.668 0 20 9.332 20 20v253.33c-0.003906 33.332-25.336 58.664-58.672 58.664z"/>
  <path d="m848 358.67c-10.668 0-20-9.332-20-20v-53.332c0-10.668-8-18.668-18.668-18.668h-56c-10.668 0-20-9.332-20-20s9.332-20 20-20h56c32 0 58.668 26.668 58.668 58.668v53.332c0 10.664-8 20-20 20z"/>
  <path fill="#00ae8e" d="m654.67 348h-261.34c-20 0-37.332-16-37.332-37.332v-98.668c0-20 16-37.332 37.332-37.332h60c9.332-30.668 37.332-53.332 70.668-53.332 33.332 0 62.668 22.668 70.668 53.332h58.668c20 0 37.332 16 37.332 37.332v98.668c1.332 21.332-14.668 37.332-36 37.332zm-257.34-40h254.67v-93.332h-73.332c-10.668 0-20-9.332-20-20 0-18.668-14.668-33.332-33.332-33.332-18.668 0-33.332 14.668-33.332 33.332 0 10.668-9.332 20-20 20h-74.668z"/>
  <path fill="#00ae8e" d="m442.67 754.67h-134.67v-134.67h134.67zm-94.668-40h54.668v-54.668h-54.668z"/>
  <path d="m606.67 706.67h-85.332c-10.668 0-20-9.332-20-20s9.332-20 20-20h85.332c10.668 0 20 9.332 20 20 0 10.664-9.3359 20-20 20z"/>
  <path fill="#00ae8e" d="m442.67 953.33h-134.67v-134.66h134.67zm-94.668-40h54.668v-54.668h-54.668z"/>
  <path fill="#00ae8e" d="m442.67 556h-134.67v-134.67h134.67zm-94.668-40h54.668v-54.668h-54.668z"/>
  <path d="m720 469.33h-200c-10.668 0-20-9.332-20-20s9.332-20 20-20h200c10.668 0 20 9.332 20 20s-8 20-20 20z"/>
  <path d="m668 546.67h-146.67c-10.668 0-20-9.332-20-20s9.332-20 20-20h148c10.668 0 20 9.332 20 20 0 10.664-9.332 20-21.332 20z"/>
  <path d="m609.33 922.67c-4 0-8-1.332-10.668-4-6.668-4-10.668-13.332-8-21.332l24-101.33c0-2.668 1.332-5.332 2.668-6.668l246.67-361.33c6.668-9.332 18.668-12 28-5.332s12 18.668 5.332 28l-246.66 360-10.668 46.664 40-26.668 266.67-390.67-45.332-30.668c-4-2.668-8-8-8-13.332-1.332-5.332 0-10.668 2.668-14.668l25.332-38.668c6.668-9.332 18.668-12 28-5.332l61.332 42.668c9.332 6.668 12 18.668 5.332 28-6.668 9.332-18.668 12-28 5.332l-45.332-30.668-2.668 4.0078 45.332 30.668c4 2.668 8 8 8 13.332 1.332 5.332 0 10.668-2.668 14.668l-280 409.33c-1.332 2.668-2.668 4-5.332 5.332l-85.332 60c-2.668 1.332-6.668 2.668-10.668 2.668z"/>
 </g>
</svg>
